/* XPM */
static char * bottom_active_xpm[] = {
"5 2 3 1",
" 	c None",
".	c #2D2D2D",
"+	c #484848",
".....",
"+++++"};
