/* XPM */
static char * top_left_inactive_xpm[] = {
"3 26 3 1",
" 	c None",
".	c #393939",
"+	c #2D2D2D",
" ..",
"..+",
".++",
".++",
".++",
".++",
".++",
".++",
".++",
".++",
".++",
".++",
".++",
".++",
".++",
".++",
".++",
".++",
".++",
".++",
".++",
".++",
".++",
".++",
".++",
".++"};
